<svg width="149" height="404" viewBox="0 0 149 404" fill="none" xmlns="http://www.w3.org/2000/svg">
<path d="M148.845 200.29C148.845 200.162 148.853 200.033 148.856 199.909C148.885 198.2 149.076 196.48 148.966 194.777C148.564 188.591 147.568 182.399 147.713 176.229C148.118 165.54 146.358 154.876 142.523 144.788C142.174 144 142.007 143.154 142.03 142.304C143.014 131.099 141.093 120.267 137.493 109.597C136.647 106.998 136.161 104.311 136.046 101.598C135.652 93.7906 134.893 86.0786 131.029 78.9537C127.757 72.9269 122.905 68.4254 115.633 66.9317C111.424 66.0466 107.416 64.4811 103.794 62.3071C100.503 60.3793 97.2143 58.4182 93.7604 56.763C92.0502 56.0335 90.5498 54.9407 89.3811 53.5732C88.2124 52.2058 87.4084 50.6023 87.0344 48.893C88.1036 47.5455 89.5049 46.3645 90.1137 44.9016C91.2309 42.2073 92.2549 39.4755 93.206 36.724C98.5759 35.6131 99.8361 27.174 97.1728 24.8642C95.8084 23.6842 94.6553 23.8346 93.8065 24.3285C94.6027 22.058 95.5593 18.6648 95.3195 15.9158C95.1134 12.3421 93.7504 8.90861 91.408 6.0625C89.2964 3.23665 85.2272 3.31013 85.2272 3.31013C85.2272 3.31013 83.4292 0.556913 75.2945 0.0501897C67.1598 -0.456534 57.467 2.88032 54.8074 9.76082C52.1477 16.6413 53.5334 21.3462 54.3258 24.4583V24.466C53.4632 23.8679 52.2234 23.5799 50.7391 24.8651C48.0453 27.1996 49.3608 35.8096 54.8848 36.7633C55.5025 38.6 56.2466 40.3982 57.1127 42.1467C58.0574 44.1043 59.2216 45.9697 60.2769 47.8821C60.5537 48.3794 61.0906 48.9853 60.9614 49.3955C60.1598 51.9692 59.1754 54.3661 56.3692 55.8658C51.824 58.2934 47.513 61.0928 42.9835 63.5512C40.9244 64.7831 38.6549 65.6828 36.2713 66.2122C25.2196 68.1194 19.1255 74.7256 15.8552 84.1244C13.6467 90.47 13.1845 97.0368 13.1181 103.655C13.1185 105.056 12.874 106.447 12.3939 107.775C8.04037 118.793 6.23414 130.535 7.09227 142.24C7.11186 143.168 6.92697 144.09 6.54891 144.949C3.93241 151.427 2.33006 158.218 1.79059 165.115C1.17805 174.507 0.761992 183.909 0.261068 193.307C0.168817 195.026 -0.0313649 196.747 0.00553555 198.464C0.0156832 198.929 0.0350547 199.396 0.0461249 199.861H0.15129L0 205.648C0 205.648 0.184503 217.19 0.966793 220.36C1.74908 223.53 4.4871 228.08 4.4871 228.08C4.4871 228.08 7.61533 231.818 9.33582 232.875C11.0563 233.932 13.6366 235.232 12.9336 232.875C12.2685 230.647 8.32106 227.768 7.49541 225.742C8.95113 226.255 11.5969 227.195 12.2676 227.425C13.2067 227.75 13.2454 226.664 13.2454 226.664C12.5259 224.567 8.86718 222.507 6.44282 221.34C6.12491 219.486 6.20422 217.593 6.67622 215.767C7.77124 211.745 9.02217 210.042 11.0563 210.119C13.0904 210.196 13.6393 214.02 15.9844 215.32C18.3294 216.621 18.9558 214.671 18.9558 214.671C16.7667 212.557 17.548 207.438 16.8441 204.43C16.4045 202.662 15.3826 201.065 13.9198 199.859C13.878 198.821 14.0245 197.784 14.3534 196.79C18.0305 185.625 21.8506 174.479 24.8617 163.153C26.3377 157.598 26.4825 151.671 26.596 145.9C26.5024 143.674 26.8102 141.448 27.5065 139.315C29.5075 134.068 31.3525 128.77 33.2676 123.494C33.4641 122.952 33.7095 122.424 33.9318 121.89L34.74 121.941C35.6625 133.347 36.7796 144.747 37.4355 156.169C37.7755 161.805 37.6308 167.457 37.0029 173.072C35.5268 185.859 33.0121 198.562 31.9918 211.373C30.6791 227.842 33.5158 244.163 37.2123 260.193C39.5878 269.905 40.7705 279.834 40.7381 289.792C40.6938 292.711 39.8285 295.63 39.2473 298.533C38.6938 301.304 37.7898 304.028 37.4411 306.816C36.0684 317.743 37.7769 328.479 40.8341 338.963C43.4328 347.874 46.7916 356.602 50.0057 365.35C51.55 369.551 53.121 373.708 53.3959 378.089C52.4061 380.477 51.742 382.971 51.419 385.512C51.2096 388.698 40.5739 395.653 39.1136 399.421C37.6532 403.188 39.9438 403.998 39.9438 403.998H66.3277C69.0399 403.998 70.4993 402.126 70.4993 399.034C70.4993 396.07 67.5832 379.157 67.3452 377.775C66.1192 363.254 65.6847 348.735 67.8747 334.237C69.5426 323.189 68.2281 312.31 65.6173 301.527C64.6044 297.221 64.8806 292.739 66.4162 288.567C67.6599 285.086 68.4839 281.488 68.8729 277.84C70.6072 258.835 72.1118 239.814 73.7022 220.799C73.8978 218.458 74.122 216.118 74.3332 213.778C74.5276 213.903 74.6874 214.069 74.7996 214.262C74.9118 214.455 74.9733 214.67 74.979 214.889C76.5694 234.297 78.0989 253.711 79.7761 273.113C80.2198 278.24 80.1755 283.457 82.5048 288.347C84.5565 292.647 84.5722 297.113 83.4643 301.718C80.9449 312.187 79.6432 322.758 81.158 333.497C81.7868 337.048 82.2026 340.628 82.4034 344.222C82.6192 355.383 83.0999 366.549 81.8858 377.673H81.8388C81.8388 377.673 78.6681 395.941 78.6681 399.036C78.6681 402.131 80.1285 404 82.8388 404H109.223C109.223 404 111.517 403.19 110.053 399.422C108.589 395.655 97.9551 388.7 97.7475 385.514C97.4245 382.972 96.7597 380.479 95.7687 378.09H95.6765C95.8757 373.719 97.4016 369.533 99.182 365.412C103.569 355.463 107.003 345.176 109.445 334.67C111.769 324.33 113.298 313.915 111.165 303.368C110.404 299.614 108.714 295.941 108.523 292.184C107.97 281.332 109.652 270.72 111.937 260.001C115.798 241.877 119.317 223.572 116.35 204.879C115.105 197.043 114.274 189.148 113.369 181.268C112.631 174.806 111.496 168.322 111.544 161.855C111.605 153.24 112.541 144.622 113.296 136.021C113.682 131.663 114.503 127.338 115.127 122.998C118.004 129.486 120.392 135.928 122.749 142.379C122.851 142.836 122.879 143.304 122.834 143.768C122.941 148.602 122.487 153.51 123.251 158.255C125.398 171.566 130.078 184.282 134.715 196.993C135.102 198.058 135.286 199.177 135.259 200.3C133.702 201.52 132.612 203.173 132.153 205.013C131.45 208.021 132.232 213.141 130.041 215.255C130.041 215.255 130.667 217.205 133.013 215.904C135.359 214.603 135.907 210.785 137.941 210.703C139.975 210.621 141.226 212.326 142.32 216.351C142.792 218.176 142.871 220.07 142.552 221.923C140.129 223.09 136.471 225.151 135.749 227.249C135.749 227.249 135.788 228.336 136.727 228.01C137.398 227.776 140.048 226.841 141.499 226.326C140.669 228.352 136.728 231.232 136.063 233.46C135.358 235.817 137.94 234.517 139.661 233.46C141.381 232.403 144.51 228.665 144.51 228.665C144.51 228.665 147.247 224.113 148.029 220.944C148.811 217.775 148.996 206.234 148.996 206.234L148.845 200.29Z" fill="#3C3C3C"/>
</svg>
