<svg width="28" height="16" viewBox="0 0 28 16" fill="none" xmlns="http://www.w3.org/2000/svg">
<path fill-rule="evenodd" clip-rule="evenodd" d="M2.24824 1.29578C1.63482 1.86692 1.24418 2.66624 0.994845 3.86185C0.560567 5.94253 0.522724 9.32144 0.917633 10.7554C1.0748 11.3255 1.35466 12.4367 1.53991 13.2246C2.0279 15.3015 2.8641 15.6739 7.04117 15.6739C12.1356 15.6739 12.5693 15.2566 13.0051 9.93545C13.227 7.2276 13.5013 6.55992 14.3922 6.55992C15.1814 6.55992 15.492 7.38152 15.731 10.1042C16.1839 15.256 16.6307 15.6739 21.6901 15.6739C26.9408 15.6739 27.1489 15.4413 27.784 8.86439C28.1807 4.75502 27.7962 2.51806 26.483 1.29578C25.6117 0.484973 25.4914 0.46877 20.9707 0.55991L16.3493 0.652737V1.49662V2.3405L20.7745 2.43063C24.495 2.50624 25.2604 2.61055 25.5812 3.08582C26.5593 4.53494 26.5614 4.5346 14.3656 4.5346C2.16981 4.5346 2.17194 4.53494 3.15006 3.08582C3.47081 2.61055 4.23622 2.50624 7.95673 2.43063L12.3819 2.3405V1.49662V0.652737L7.76049 0.55991C3.23979 0.46877 3.11954 0.484973 2.24824 1.29578ZM8.87228 8.07891V9.5979H5.66784H2.4634V8.07891V6.55992H5.66784H8.87228V8.07891Z" fill="#01205C"/>
</svg>
